# This file uses centimeters as units for non-parametric coordinates.

mtllib GR1.mtl
g default
v -11.440241 -5.107863 24.541863
v -11.671319 -4.896032 24.724307
v -12.011590 -5.242763 24.762112
v -11.958197 -5.441991 24.475216
v -11.889469 -5.140365 24.899765
v -11.820997 -4.941503 24.675087
v -11.629229 -5.100932 24.297831
v -11.662262 -5.420612 24.484926
v -11.931155 -5.319130 24.632902
v -11.621569 -5.251460 24.757415
v -11.580272 -4.851799 24.523511
v -11.952728 -4.909778 24.358686
vt 0.181818 0.250000
vt 0.363636 0.250000
vt 0.545455 0.250000
vt 0.727273 0.250000
vt 0.909091 0.250000
vt 0.090909 0.416667
vt 0.272727 0.416667
vt 0.454545 0.416667
vt 0.636364 0.416667
vt 0.818182 0.416667
vt 1.000000 0.416667
vt 0.000000 0.583333
vt 0.181818 0.583333
vt 0.363636 0.583333
vt 0.545455 0.583333
vt 0.727273 0.583333
vt 0.909091 0.583333
vt 0.090909 0.750000
vt 0.272727 0.750000
vt 0.454545 0.750000
vt 0.636364 0.750000
vt 0.818182 0.750000
vn 0.698975 0.162706 0.696391
vn 0.698975 0.162706 0.696391
vn 0.698975 0.162706 0.696391
vn 0.770023 0.453275 0.449006
vn 0.770023 0.453275 0.449006
vn 0.770023 0.453275 0.449006
vn 0.716988 -0.405803 -0.566791
vn 0.716988 -0.405803 -0.566791
vn 0.716988 -0.405803 -0.566791
vn 0.741104 0.364889 -0.563578
vn 0.741104 0.364889 -0.563578
vn 0.741104 0.364889 -0.563578
vn 0.766892 -0.590275 0.251898
vn 0.766892 -0.590275 0.251898
vn 0.766892 -0.590275 0.251898
vn -0.401739 0.743051 0.535239
vn -0.401739 0.743051 0.535239
vn -0.401739 0.743051 0.535239
vn 0.511815 0.150428 0.845823
vn 0.511815 0.150428 0.845823
vn 0.511815 0.150428 0.845823
vn -0.310437 0.948151 0.068108
vn -0.310437 0.948151 0.068108
vn -0.310437 0.948151 0.068108
vn 0.187217 -0.790188 0.583569
vn 0.187217 -0.790188 0.583569
vn 0.187217 -0.790188 0.583569
vn -0.985887 -0.026078 -0.165371
vn -0.985887 -0.026078 -0.165371
vn -0.985887 -0.026078 -0.165371
vn -0.777806 0.569120 0.266684
vn -0.777806 0.569120 0.266684
vn -0.777806 0.569120 0.266684
vn 0.084433 -0.833900 0.545419
vn 0.084433 -0.833900 0.545419
vn 0.084433 -0.833900 0.545419
vn -0.736142 0.570792 0.363720
vn -0.736142 0.570792 0.363720
vn -0.736142 0.570792 0.363720
vn 0.064933 -0.509030 -0.858296
vn 0.064933 -0.509030 -0.858296
vn 0.064933 -0.509030 -0.858296
vn -0.294774 -0.201493 -0.934082
vn -0.294774 -0.201493 -0.934082
vn -0.294774 -0.201493 -0.934082
vn 0.037147 -0.791361 0.610219
vn 0.037147 -0.791361 0.610219
vn 0.037147 -0.791361 0.610219
vn -0.044846 -0.826729 0.560810
vn -0.044846 -0.826729 0.560810
vn -0.044846 -0.826729 0.560810
vn -0.233694 0.952993 0.192853
vn -0.233694 0.952993 0.192853
vn -0.233694 0.952993 0.192853
vn 0.231173 0.627832 -0.743227
vn 0.231173 0.627832 -0.743227
vn 0.231173 0.627832 -0.743227
vn -0.028026 -0.847396 0.530221
vn -0.028026 -0.847396 0.530221
vn -0.028026 -0.847396 0.530221
s off
g pasted__pasted__pSolid9 group25 group24
usemtl blinn15SG
f 2/17/1 10/22/2 1/16/3
f 1/16/4 11/10/5 2/17/6
f 1/16/7 8/15/8 7/9/9
f 1/16/10 7/9/11 11/10/12
f 1/16/13 10/21/14 8/15/15
f 5/13/16 2/12/17 6/6/18
f 10/18/19 2/12/20 5/13/21
f 2/17/22 11/10/23 6/11/24
f 4/8/25 9/14/26 3/7/27
f 3/7/28 12/2/29 4/8/30
f 5/13/31 6/6/32 3/7/33
f 3/7/34 9/14/35 5/13/36
f 6/6/37 12/1/38 3/7/39
f 7/9/40 8/15/41 4/8/42
f 4/8/43 12/3/44 7/9/45
f 4/8/46 8/15/47 9/14/48
f 5/13/49 9/14/50 10/19/51
f 6/11/52 11/10/53 12/5/54
f 7/9/55 12/4/56 11/10/57
f 8/15/58 10/20/59 9/14/60
